<?xml version="1.0" encoding="UTF-8" standalone="no"?>
<svg
   width="7000"
   height="3000"
   viewBox="0 0 7000 3000"
   version="1.1"
   id="svg169"
   sodipodi:docname="vecteezy_red-background-with-abstract-wavy-lines-vector-illustration_13193239.svg"
   inkscape:version="1.4 (e7c3feb1, 2024-10-09)"
   xmlns:inkscape="http://www.inkscape.org/namespaces/inkscape"
   xmlns:sodipodi="http://sodipodi.sourceforge.net/DTD/sodipodi-0.dtd"
   xmlns="http://www.w3.org/2000/svg"
   xmlns:svg="http://www.w3.org/2000/svg">
  <sodipodi:namedview
     id="namedview169"
     pagecolor="#ffffff"
     bordercolor="#666666"
     borderopacity="1.0"
     inkscape:showpageshadow="2"
     inkscape:pageopacity="0.0"
     inkscape:pagecheckerboard="0"
     inkscape:deskcolor="#d1d1d1"
     inkscape:zoom="0.08897068"
     inkscape:cx="2500.8239"
     inkscape:cy="977.85023"
     inkscape:window-width="1280"
     inkscape:window-height="747"
     inkscape:window-x="0"
     inkscape:window-y="25"
     inkscape:window-maximized="1"
     inkscape:current-layer="svg169" />
  <defs
     id="defs135">
    <linearGradient
       id="linear-pattern-0"
       gradientUnits="userSpaceOnUse"
       x1="0.31884"
       y1="0"
       x2="0.997348"
       y2="0"
       gradientTransform="matrix(21.6, 4471.2, -4471.2, 21.6, 3485.79, -1442.47)">
      <stop
         offset="0"
         stop-color="rgb(36.94458%, 4.364014%, 5.610657%)"
         stop-opacity="1"
         id="stop1" />
      <stop
         offset="0.00390625"
         stop-color="rgb(36.601257%, 4.322815%, 5.558777%)"
         stop-opacity="1"
         id="stop2" />
      <stop
         offset="0.0078125"
         stop-color="rgb(36.257935%, 4.283142%, 5.506897%)"
         stop-opacity="1"
         id="stop3" />
      <stop
         offset="0.0117187"
         stop-color="rgb(35.917664%, 4.241943%, 5.455017%)"
         stop-opacity="1"
         id="stop4" />
      <stop
         offset="0.015625"
         stop-color="rgb(35.577393%, 4.202271%, 5.403137%)"
         stop-opacity="1"
         id="stop5" />
      <stop
         offset="0.0195313"
         stop-color="rgb(35.241699%, 4.162598%, 5.351257%)"
         stop-opacity="1"
         id="stop6" />
      <stop
         offset="0.0234375"
         stop-color="rgb(34.906006%, 4.122925%, 5.300903%)"
         stop-opacity="1"
         id="stop7" />
      <stop
         offset="0.0273437"
         stop-color="rgb(34.573364%, 4.083252%, 5.250549%)"
         stop-opacity="1"
         id="stop8" />
      <stop
         offset="0.03125"
         stop-color="rgb(34.240723%, 4.045105%, 5.200195%)"
         stop-opacity="1"
         id="stop9" />
      <stop
         offset="0.0351562"
         stop-color="rgb(33.912659%, 4.005432%, 5.149841%)"
         stop-opacity="1"
         id="stop10" />
      <stop
         offset="0.0390625"
         stop-color="rgb(33.584595%, 3.967285%, 5.101013%)"
         stop-opacity="1"
         id="stop11" />
      <stop
         offset="0.0429688"
         stop-color="rgb(33.259583%, 3.929138%, 5.050659%)"
         stop-opacity="1"
         id="stop12" />
      <stop
         offset="0.046875"
         stop-color="rgb(32.93457%, 3.890991%, 5.001831%)"
         stop-opacity="1"
         id="stop13" />
      <stop
         offset="0.0507812"
         stop-color="rgb(32.61261%, 3.852844%, 4.953003%)"
         stop-opacity="1"
         id="stop14" />
      <stop
         offset="0.0546875"
         stop-color="rgb(32.292175%, 3.814697%, 4.904175%)"
         stop-opacity="1"
         id="stop15" />
      <stop
         offset="0.0585937"
         stop-color="rgb(31.974792%, 3.77655%, 4.855347%)"
         stop-opacity="1"
         id="stop16" />
      <stop
         offset="0.0625"
         stop-color="rgb(31.65741%, 3.739929%, 4.808044%)"
         stop-opacity="1"
         id="stop17" />
      <stop
         offset="0.0664063"
         stop-color="rgb(31.343079%, 3.701782%, 4.760742%)"
         stop-opacity="1"
         id="stop18" />
      <stop
         offset="0.0703125"
         stop-color="rgb(31.030273%, 3.665161%, 4.71344%)"
         stop-opacity="1"
         id="stop19" />
      <stop
         offset="0.0742187"
         stop-color="rgb(30.718994%, 3.62854%, 4.666138%)"
         stop-opacity="1"
         id="stop20" />
      <stop
         offset="0.078125"
         stop-color="rgb(30.409241%, 3.591919%, 4.618835%)"
         stop-opacity="1"
         id="stop21" />
      <stop
         offset="0.0820312"
         stop-color="rgb(30.102539%, 3.555298%, 4.571533%)"
         stop-opacity="1"
         id="stop22" />
      <stop
         offset="0.0859375"
         stop-color="rgb(29.795837%, 3.520203%, 4.525757%)"
         stop-opacity="1"
         id="stop23" />
      <stop
         offset="0.0898438"
         stop-color="rgb(29.492188%, 3.483582%, 4.478455%)"
         stop-opacity="1"
         id="stop24" />
      <stop
         offset="0.09375"
         stop-color="rgb(29.190063%, 3.448486%, 4.432678%)"
         stop-opacity="1"
         id="stop25" />
      <stop
         offset="0.0976562"
         stop-color="rgb(28.890991%, 3.411865%, 4.386902%)"
         stop-opacity="1"
         id="stop26" />
      <stop
         offset="0.101562"
         stop-color="rgb(28.591919%, 3.37677%, 4.342651%)"
         stop-opacity="1"
         id="stop27" />
      <stop
         offset="0.105469"
         stop-color="rgb(28.295898%, 3.341675%, 4.296875%)"
         stop-opacity="1"
         id="stop28" />
      <stop
         offset="0.109375"
         stop-color="rgb(28.001404%, 3.308105%, 4.252625%)"
         stop-opacity="1"
         id="stop29" />
      <stop
         offset="0.113281"
         stop-color="rgb(27.708435%, 3.27301%, 4.208374%)"
         stop-opacity="1"
         id="stop30" />
      <stop
         offset="0.117188"
         stop-color="rgb(27.416992%, 3.237915%, 4.164124%)"
         stop-opacity="1"
         id="stop31" />
      <stop
         offset="0.121094"
         stop-color="rgb(27.128601%, 3.204346%, 4.119873%)"
         stop-opacity="1"
         id="stop32" />
      <stop
         offset="0.125"
         stop-color="rgb(26.84021%, 3.170776%, 4.075623%)"
         stop-opacity="1"
         id="stop33" />
      <stop
         offset="0.128906"
         stop-color="rgb(26.554871%, 3.137207%, 4.032898%)"
         stop-opacity="1"
         id="stop34" />
      <stop
         offset="0.132812"
         stop-color="rgb(26.271057%, 3.103638%, 3.990173%)"
         stop-opacity="1"
         id="stop35" />
      <stop
         offset="0.136719"
         stop-color="rgb(25.98877%, 3.070068%, 3.947449%)"
         stop-opacity="1"
         id="stop36" />
      <stop
         offset="0.140625"
         stop-color="rgb(25.708008%, 3.036499%, 3.904724%)"
         stop-opacity="1"
         id="stop37" />
      <stop
         offset="0.144531"
         stop-color="rgb(25.430298%, 3.00293%, 3.862%)"
         stop-opacity="1"
         id="stop38" />
      <stop
         offset="0.148437"
         stop-color="rgb(25.152588%, 2.970886%, 3.819275%)"
         stop-opacity="1"
         id="stop39" />
      <stop
         offset="0.152344"
         stop-color="rgb(24.87793%, 2.938843%, 3.778076%)"
         stop-opacity="1"
         id="stop40" />
      <stop
         offset="0.15625"
         stop-color="rgb(24.604797%, 2.906799%, 3.736877%)"
         stop-opacity="1"
         id="stop41" />
      <stop
         offset="0.160156"
         stop-color="rgb(24.333191%, 2.874756%, 3.695679%)"
         stop-opacity="1"
         id="stop42" />
      <stop
         offset="0.164062"
         stop-color="rgb(24.06311%, 2.842712%, 3.65448%)"
         stop-opacity="1"
         id="stop43" />
      <stop
         offset="0.167969"
         stop-color="rgb(23.796082%, 2.810669%, 3.613281%)"
         stop-opacity="1"
         id="stop44" />
      <stop
         offset="0.171875"
         stop-color="rgb(23.529053%, 2.778625%, 3.573608%)"
         stop-opacity="1"
         id="stop45" />
      <stop
         offset="0.175781"
         stop-color="rgb(23.265076%, 2.746582%, 3.53241%)"
         stop-opacity="1"
         id="stop46" />
      <stop
         offset="0.179687"
         stop-color="rgb(23.001099%, 2.716064%, 3.492737%)"
         stop-opacity="1"
         id="stop47" />
      <stop
         offset="0.183594"
         stop-color="rgb(22.740173%, 2.685547%, 3.453064%)"
         stop-opacity="1"
         id="stop48" />
      <stop
         offset="0.1875"
         stop-color="rgb(22.480774%, 2.655029%, 3.413391%)"
         stop-opacity="1"
         id="stop49" />
      <stop
         offset="0.191406"
         stop-color="rgb(22.224426%, 2.624512%, 3.373718%)"
         stop-opacity="1"
         id="stop50" />
      <stop
         offset="0.195312"
         stop-color="rgb(21.968079%, 2.593994%, 3.335571%)"
         stop-opacity="1"
         id="stop51" />
      <stop
         offset="0.199219"
         stop-color="rgb(21.714783%, 2.563477%, 3.297424%)"
         stop-opacity="1"
         id="stop52" />
      <stop
         offset="0.203125"
         stop-color="rgb(21.461487%, 2.534485%, 3.259277%)"
         stop-opacity="1"
         id="stop53" />
      <stop
         offset="0.207031"
         stop-color="rgb(21.211243%, 2.505493%, 3.22113%)"
         stop-opacity="1"
         id="stop54" />
      <stop
         offset="0.210937"
         stop-color="rgb(20.960999%, 2.476501%, 3.182983%)"
         stop-opacity="1"
         id="stop55" />
      <stop
         offset="0.214844"
         stop-color="rgb(20.713806%, 2.445984%, 3.144836%)"
         stop-opacity="1"
         id="stop56" />
      <stop
         offset="0.21875"
         stop-color="rgb(20.46814%, 2.416992%, 3.108215%)"
         stop-opacity="1"
         id="stop57" />
      <stop
         offset="0.222656"
         stop-color="rgb(20.225525%, 2.388%, 3.071594%)"
         stop-opacity="1"
         id="stop58" />
      <stop
         offset="0.226562"
         stop-color="rgb(19.98291%, 2.360535%, 3.034973%)"
         stop-opacity="1"
         id="stop59" />
      <stop
         offset="0.230469"
         stop-color="rgb(19.743347%, 2.331543%, 2.998352%)"
         stop-opacity="1"
         id="stop60" />
      <stop
         offset="0.234375"
         stop-color="rgb(19.503784%, 2.304077%, 2.961731%)"
         stop-opacity="1"
         id="stop61" />
      <stop
         offset="0.238281"
         stop-color="rgb(19.267273%, 2.275085%, 2.92511%)"
         stop-opacity="1"
         id="stop62" />
      <stop
         offset="0.242188"
         stop-color="rgb(19.030762%, 2.24762%, 2.890015%)"
         stop-opacity="1"
         id="stop63" />
      <stop
         offset="0.246094"
         stop-color="rgb(18.797302%, 2.220154%, 2.854919%)"
         stop-opacity="1"
         id="stop64" />
      <stop
         offset="0.25"
         stop-color="rgb(18.565369%, 2.192688%, 2.819824%)"
         stop-opacity="1"
         id="stop65" />
      <stop
         offset="0.253906"
         stop-color="rgb(18.334961%, 2.165222%, 2.784729%)"
         stop-opacity="1"
         id="stop66" />
      <stop
         offset="0.257812"
         stop-color="rgb(18.106079%, 2.137756%, 2.749634%)"
         stop-opacity="1"
         id="stop67" />
      <stop
         offset="0.261719"
         stop-color="rgb(17.880249%, 2.110291%, 2.714539%)"
         stop-opacity="1"
         id="stop68" />
      <stop
         offset="0.265625"
         stop-color="rgb(17.654419%, 2.084351%, 2.680969%)"
         stop-opacity="1"
         id="stop69" />
      <stop
         offset="0.269531"
         stop-color="rgb(17.431641%, 2.058411%, 2.6474%)"
         stop-opacity="1"
         id="stop70" />
      <stop
         offset="0.273437"
         stop-color="rgb(17.208862%, 2.032471%, 2.613831%)"
         stop-opacity="1"
         id="stop71" />
      <stop
         offset="0.277344"
         stop-color="rgb(16.989136%, 2.006531%, 2.580261%)"
         stop-opacity="1"
         id="stop72" />
      <stop
         offset="0.28125"
         stop-color="rgb(16.769409%, 1.980591%, 2.546692%)"
         stop-opacity="1"
         id="stop73" />
      <stop
         offset="0.285156"
         stop-color="rgb(16.552734%, 1.954651%, 2.513123%)"
         stop-opacity="1"
         id="stop74" />
      <stop
         offset="0.289062"
         stop-color="rgb(16.337585%, 1.930237%, 2.481079%)"
         stop-opacity="1"
         id="stop75" />
      <stop
         offset="0.292969"
         stop-color="rgb(16.123962%, 1.904297%, 2.449036%)"
         stop-opacity="1"
         id="stop76" />
      <stop
         offset="0.296875"
         stop-color="rgb(15.911865%, 1.879883%, 2.416992%)"
         stop-opacity="1"
         id="stop77" />
      <stop
         offset="0.300781"
         stop-color="rgb(15.701294%, 1.853943%, 2.384949%)"
         stop-opacity="1"
         id="stop78" />
      <stop
         offset="0.304687"
         stop-color="rgb(15.492249%, 1.829529%, 2.352905%)"
         stop-opacity="1"
         id="stop79" />
      <stop
         offset="0.308594"
         stop-color="rgb(15.286255%, 1.805115%, 2.320862%)"
         stop-opacity="1"
         id="stop80" />
      <stop
         offset="0.3125"
         stop-color="rgb(15.080261%, 1.780701%, 2.290344%)"
         stop-opacity="1"
         id="stop81" />
      <stop
         offset="0.316406"
         stop-color="rgb(14.875793%, 1.756287%, 2.258301%)"
         stop-opacity="1"
         id="stop82" />
      <stop
         offset="0.320312"
         stop-color="rgb(14.672852%, 1.733398%, 2.227783%)"
         stop-opacity="1"
         id="stop83" />
      <stop
         offset="0.324219"
         stop-color="rgb(14.472961%, 1.708984%, 2.197266%)"
         stop-opacity="1"
         id="stop84" />
      <stop
         offset="0.328125"
         stop-color="rgb(14.274597%, 1.686096%, 2.168274%)"
         stop-opacity="1"
         id="stop85" />
      <stop
         offset="0.332031"
         stop-color="rgb(14.077759%, 1.661682%, 2.137756%)"
         stop-opacity="1"
         id="stop86" />
      <stop
         offset="0.335938"
         stop-color="rgb(13.88092%, 1.638794%, 2.107239%)"
         stop-opacity="1"
         id="stop87" />
      <stop
         offset="0.34375"
         stop-color="rgb(13.687134%, 1.615906%, 2.078247%)"
         stop-opacity="1"
         id="stop88" />
      <stop
         offset="0.351562"
         stop-color="rgb(13.302612%, 1.570129%, 2.020264%)"
         stop-opacity="1"
         id="stop89" />
      <stop
         offset="0.359375"
         stop-color="rgb(12.92572%, 1.525879%, 1.96228%)"
         stop-opacity="1"
         id="stop90" />
      <stop
         offset="0.367187"
         stop-color="rgb(12.554932%, 1.481628%, 1.905823%)"
         stop-opacity="1"
         id="stop91" />
      <stop
         offset="0.375"
         stop-color="rgb(12.190247%, 1.438904%, 1.850891%)"
         stop-opacity="1"
         id="stop92" />
      <stop
         offset="0.382813"
         stop-color="rgb(11.831665%, 1.396179%, 1.795959%)"
         stop-opacity="1"
         id="stop93" />
      <stop
         offset="0.390625"
         stop-color="rgb(11.479187%, 1.35498%, 1.742554%)"
         stop-opacity="1"
         id="stop94" />
      <stop
         offset="0.398437"
         stop-color="rgb(11.132812%, 1.313782%, 1.690674%)"
         stop-opacity="1"
         id="stop95" />
      <stop
         offset="0.40625"
         stop-color="rgb(10.792542%, 1.274109%, 1.638794%)"
         stop-opacity="1"
         id="stop96" />
      <stop
         offset="0.414062"
         stop-color="rgb(10.4599%, 1.234436%, 1.586914%)"
         stop-opacity="1"
         id="stop97" />
      <stop
         offset="0.421875"
         stop-color="rgb(10.131836%, 1.196289%, 1.538086%)"
         stop-opacity="1"
         id="stop98" />
      <stop
         offset="0.429688"
         stop-color="rgb(9.809875%, 1.158142%, 1.489258%)"
         stop-opacity="1"
         id="stop99" />
      <stop
         offset="0.4375"
         stop-color="rgb(9.494019%, 1.121521%, 1.44043%)"
         stop-opacity="1"
         id="stop100" />
      <stop
         offset="0.445312"
         stop-color="rgb(9.184265%, 1.0849%, 1.394653%)"
         stop-opacity="1"
         id="stop101" />
      <stop
         offset="0.453125"
         stop-color="rgb(8.880615%, 1.048279%, 1.348877%)"
         stop-opacity="1"
         id="stop102" />
      <stop
         offset="0.460937"
         stop-color="rgb(8.583069%, 1.013184%, 1.303101%)"
         stop-opacity="1"
         id="stop103" />
      <stop
         offset="0.46875"
         stop-color="rgb(8.291626%, 0.978088%, 1.25885%)"
         stop-opacity="1"
         id="stop104" />
      <stop
         offset="0.476563"
         stop-color="rgb(8.006287%, 0.944519%, 1.216125%)"
         stop-opacity="1"
         id="stop105" />
      <stop
         offset="0.484375"
         stop-color="rgb(7.727051%, 0.912476%, 1.173401%)"
         stop-opacity="1"
         id="stop106" />
      <stop
         offset="0.492187"
         stop-color="rgb(7.452393%, 0.878906%, 1.130676%)"
         stop-opacity="1"
         id="stop107" />
      <stop
         offset="0.5"
         stop-color="rgb(7.183838%, 0.848389%, 1.091003%)"
         stop-opacity="1"
         id="stop108" />
      <stop
         offset="0.507812"
         stop-color="rgb(6.921387%, 0.816345%, 1.051331%)"
         stop-opacity="1"
         id="stop109" />
      <stop
         offset="0.515625"
         stop-color="rgb(6.663513%, 0.785828%, 1.011658%)"
         stop-opacity="1"
         id="stop110" />
      <stop
         offset="0.523437"
         stop-color="rgb(6.411743%, 0.756836%, 0.973511%)"
         stop-opacity="1"
         id="stop111" />
      <stop
         offset="0.53125"
         stop-color="rgb(6.166077%, 0.727844%, 0.935364%)"
         stop-opacity="1"
         id="stop112" />
      <stop
         offset="0.539062"
         stop-color="rgb(5.926514%, 0.698853%, 0.898743%)"
         stop-opacity="1"
         id="stop113" />
      <stop
         offset="0.546875"
         stop-color="rgb(5.693054%, 0.671387%, 0.863647%)"
         stop-opacity="1"
         id="stop114" />
      <stop
         offset="0.554687"
         stop-color="rgb(5.462646%, 0.643921%, 0.828552%)"
         stop-opacity="1"
         id="stop115" />
      <stop
         offset="0.5625"
         stop-color="rgb(5.239868%, 0.617981%, 0.794983%)"
         stop-opacity="1"
         id="stop116" />
      <stop
         offset="0.570312"
         stop-color="rgb(5.021667%, 0.592041%, 0.761414%)"
         stop-opacity="1"
         id="stop117" />
      <stop
         offset="0.578125"
         stop-color="rgb(4.808044%, 0.567627%, 0.72937%)"
         stop-opacity="1"
         id="stop118" />
      <stop
         offset="0.585938"
         stop-color="rgb(4.602051%, 0.543213%, 0.697327%)"
         stop-opacity="1"
         id="stop119" />
      <stop
         offset="0.59375"
         stop-color="rgb(4.399109%, 0.518799%, 0.666809%)"
         stop-opacity="1"
         id="stop120" />
      <stop
         offset="0.609375"
         stop-color="rgb(4.107666%, 0.483704%, 0.622559%)"
         stop-opacity="1"
         id="stop121" />
      <stop
         offset="0.625"
         stop-color="rgb(3.735352%, 0.440979%, 0.566101%)"
         stop-opacity="1"
         id="stop122" />
      <stop
         offset="0.640625"
         stop-color="rgb(3.382874%, 0.398254%, 0.512695%)"
         stop-opacity="1"
         id="stop123" />
      <stop
         offset="0.65625"
         stop-color="rgb(3.050232%, 0.358582%, 0.462341%)"
         stop-opacity="1"
         id="stop124" />
      <stop
         offset="0.671875"
         stop-color="rgb(2.738953%, 0.32196%, 0.415039%)"
         stop-opacity="1"
         id="stop125" />
      <stop
         offset="0.6875"
         stop-color="rgb(2.445984%, 0.288391%, 0.370789%)"
         stop-opacity="1"
         id="stop126" />
      <stop
         offset="0.703125"
         stop-color="rgb(2.171326%, 0.256348%, 0.32959%)"
         stop-opacity="1"
         id="stop127" />
      <stop
         offset="0.71875"
         stop-color="rgb(1.916504%, 0.22583%, 0.289917%)"
         stop-opacity="1"
         id="stop128" />
      <stop
         offset="0.734375"
         stop-color="rgb(1.679993%, 0.198364%, 0.254822%)"
         stop-opacity="1"
         id="stop129" />
      <stop
         offset="0.75"
         stop-color="rgb(1.461792%, 0.172424%, 0.221252%)"
         stop-opacity="1"
         id="stop130" />
      <stop
         offset="0.78125"
         stop-color="rgb(1.173401%, 0.137329%, 0.177002%)"
         stop-opacity="1"
         id="stop131" />
      <stop
         offset="0.8125"
         stop-color="rgb(0.839233%, 0.0976562%, 0.126648%)"
         stop-opacity="1"
         id="stop132" />
      <stop
         offset="0.84375"
         stop-color="rgb(0.567627%, 0.0656128%, 0.0854492%)"
         stop-opacity="1"
         id="stop133" />
      <stop
         offset="0.875"
         stop-color="rgb(0.357056%, 0.0411987%, 0.0534058%)"
         stop-opacity="1"
         id="stop134" />
      <stop
         offset="1"
         stop-color="rgb(0.132751%, 0.0152588%, 0.0198364%)"
         stop-opacity="1"
         id="stop135" />
    </linearGradient>
  </defs>
  <path
     fill-rule="nonzero"
     fill="url(#linear-pattern-0)"
     d="M 6999.835938 -33.816406 L -14.492188 0.0703125 L 0.164062 3033.816406 L 7014.492188 2999.929688 Z M 6999.835938 -33.816406 "
     id="path135" />
  <path
     fill="none"
     stroke-width="10"
     stroke-linecap="butt"
     stroke-linejoin="miter"
     stroke="rgb(100%, 0%, 0%)"
     stroke-opacity="1"
     stroke-miterlimit="10"
     d="M -1267.851562 31652.304688 C -320.78125 28796.210938 7012.421875 29878.398438 10935.117188 21531.015625 C 14098.789062 14798.710938 14296.914062 18702.5 19434.296875 15249.21875 C 21335.898438 13970.898438 24217.617188 14851.015625 26026.914062 13422.109375 C 28683.28125 11324.21875 32343.789062 10869.6875 35615.507812 10389.804688 C 41460 9532.5 46076.09375 619.882812 52716.601562 8660.898438 C 57385.78125 14314.804688 64378.710938 -951.992188 71353.085938 -1153.984375 "
     transform="matrix(0.1, 0, 0, -0.1, 0, 3000)"
     id="path136"
     style="fill:#00003a;fill-opacity:0" />
  <path
     fill="none"
     stroke-width="10"
     stroke-linecap="butt"
     stroke-linejoin="miter"
     stroke="rgb(100%, 0%, 0%)"
     stroke-opacity="1"
     stroke-miterlimit="10"
     d="M -1241.367188 31621.40625 C -760.3125 30207.890625 1134.0625 29677.1875 3377.65625 28561.484375 C 5038.164062 27735.703125 7052.96875 26824.882812 8732.695312 24905.390625 C 9528.945312 23996.484375 10349.609375 22948.90625 11050.507812 21643.085938 C 13214.101562 17612.382812 14130.703125 17694.609375 15716.992188 17249.21875 C 16603.398438 17000.3125 17759.101562 16630.390625 19480.585938 15362.5 C 21324.21875 14004.492188 24081.09375 14650.507812 25846.015625 13222.8125 C 26488.203125 12703.203125 27178.90625 12288.984375 27912.5 12011.289062 C 30308.984375 11104.414062 33025.117188 10839.21875 35473.203125 10470.78125 C 39452.304688 9858.789062 42509.21875 5364.296875 46304.609375 5321.40625 C 48275 5299.21875 50251.015625 6151.210938 52488.085938 8661.914062 C 54704.101562 11148.90625 57281.40625 9088.203125 60243.398438 6534.882812 C 62611.289062 4493.710938 65174.882812 1905.507812 67703.984375 255.820312 C 68901.40625 -521.015625 70100.195312 -1068.789062 71326.601562 -1123.085938 "
     transform="matrix(0.1, 0, 0, -0.1, 0, 3000)"
     id="path137" />
  <path
     fill="none"
     stroke-width="10"
     stroke-linecap="butt"
     stroke-linejoin="miter"
     stroke="rgb(100%, 0%, 0%)"
     stroke-opacity="1"
     stroke-miterlimit="10"
     d="M -1214.84375 31590.507812 C -710.820312 30145 1125.742188 29540.78125 3275.273438 28363.59375 C 4902.109375 27472.695312 7034.0625 26725.703125 8716.09375 24846.796875 C 9516.054688 23955.117188 10411.601562 22986.015625 11166.015625 21755.195312 C 13447.304688 18032.8125 14484.609375 18114.804688 15964.882812 17546.484375 C 16806.40625 17223.515625 17911.992188 16778.398438 19526.796875 15475.78125 C 21313.203125 14034.804688 23943.984375 14448.90625 25665.117188 13023.398438 C 26315.898438 12484.296875 27008.515625 12064.21875 27745 11843.789062 C 30216.914062 11104.296875 32927.1875 10930.390625 35331.015625 10551.914062 C 39414.882812 9908.710938 42196.289062 5027.1875 46037.1875 5292.695312 C 48079.804688 5433.984375 50028.085938 6348.085938 52259.492188 8662.890625 C 54546.484375 11035.195312 57055.78125 8745.117188 60070.507812 6392.890625 C 62506.210938 4492.5 65159.804688 2070.585938 67701.992188 370.585938 C 68887.109375 -421.914062 70066.601562 -1018.90625 71300.117188 -1092.1875 "
     transform="matrix(0.1, 0, 0, -0.1, 0, 3000)"
     id="path138" />
  <path
     fill="none"
     stroke-width="10"
     stroke-linecap="butt"
     stroke-linejoin="miter"
     stroke="rgb(100%, 0%, 0%)"
     stroke-opacity="1"
     stroke-miterlimit="10"
     d="M -1188.359375 31559.609375 C -661.367188 30082.109375 1117.226562 29401.601562 3172.929688 28165.78125 C 4766.210938 27207.890625 7015.15625 26626.484375 8699.453125 24788.203125 C 9503.164062 23913.710938 10470.898438 23024.804688 11281.40625 21867.304688 C 13670.703125 18455.117188 14840.898438 18530.195312 16212.695312 17843.90625 C 17011.289062 17444.296875 18063.789062 16922.1875 19573.085938 15589.101562 C 21302.617188 14061.40625 23806.09375 14246.40625 25484.21875 12823.984375 C 26143.515625 12265.195312 26839.804688 11840.703125 27577.5 11676.289062 C 30130.585938 11107.1875 32828.710938 11016.914062 35188.710938 10632.890625 C 39376.484375 9951.40625 41886.601562 4698.203125 45769.6875 5263.984375 C 47886.484375 5572.5 49811.796875 6542.8125 52031.015625 8663.90625 C 54394.101562 10922.5 56832.890625 8402.890625 59897.617188 6250.898438 C 62403.007812 4491.71875 65146.914062 2239.296875 67700.117188 485.390625 C 68873.90625 -321.015625 70033.007812 -969.101562 71273.59375 -1061.210938 "
     transform="matrix(0.1, 0, 0, -0.1, 0, 3000)"
     id="path139" />
  <path
     fill="none"
     stroke-width="10"
     stroke-linecap="butt"
     stroke-linejoin="miter"
     stroke="rgb(100%, 0%, 0%)"
     stroke-opacity="1"
     stroke-miterlimit="10"
     d="M -1161.835938 31528.59375 C -611.875 30019.21875 1108.125 29259.609375 3070.585938 27967.890625 C 4630.3125 26941.289062 6996.25 26527.304688 8682.851562 24729.609375 C 9490.273438 23872.1875 10526.914062 23064.804688 11396.796875 21979.414062 C 13882.695312 18877.617188 15198.28125 18939.882812 16460.507812 18141.210938 C 17217.304688 17662.304688 18214.101562 17062.109375 19619.296875 15702.382812 C 21291.601562 14084.414062 23667.617188 14042.890625 25303.398438 12624.609375 C 25970.78125 12045.898438 26672.5 11618.984375 27410 11508.789062 C 30048.984375 11114.296875 32730 11102.890625 35046.484375 10713.90625 C 39337.890625 9993.398438 41578.398438 4377.109375 45502.304688 5235.3125 C 47694.101562 5714.6875 49602.382812 6734.492188 51802.5 8664.882812 C 54247.5 10810.195312 56612.5 8061.914062 59724.6875 6108.90625 C 62301.796875 4491.71875 65134.21875 2408.398438 67698.203125 600.117188 C 68860.898438 -219.882812 69999.492188 -919.179688 71247.109375 -1030.3125 "
     transform="matrix(0.1, 0, 0, -0.1, 0, 3000)"
     id="path140" />
  <path
     fill="none"
     stroke-width="10"
     stroke-linecap="butt"
     stroke-linejoin="miter"
     stroke="rgb(100%, 0%, 0%)"
     stroke-opacity="1"
     stroke-miterlimit="10"
     d="M -1135.351562 31497.695312 C -562.421875 29956.210938 1098.203125 29114.804688 2968.242188 27770.117188 C 4494.023438 26672.890625 6977.34375 26428.085938 8666.210938 24671.09375 C 9477.382812 23830.78125 10579.296875 23105.3125 11512.304688 22091.484375 C 14082.382812 19298.398438 15555.3125 19343.710938 16708.28125 18438.515625 C 17423.59375 17876.992188 18362.382812 17198.007812 19665.585938 15815.703125 C 21279.609375 14103.59375 23528.398438 13838.59375 25122.5 12425.195312 C 25798.007812 11826.289062 26506.09375 11399.21875 27242.5 11341.210938 C 29971.09375 11126.71875 32631.289062 11188.203125 34904.21875 10795 C 39299.296875 10034.609375 41270.117188 4062.8125 45234.882812 5206.601562 C 47501.71875 5860.585938 49399.882812 6922.382812 51573.90625 8665.898438 C 54106.796875 10697.109375 56394.492188 7722.695312 59551.796875 5966.914062 C 62202.617188 4492.8125 65121.796875 2578.007812 67696.289062 714.882812 C 68848.007812 -118.515625 69965.898438 -869.296875 71220.585938 -999.414062 "
     transform="matrix(0.1, 0, 0, -0.1, 0, 3000)"
     id="path141" />
  <path
     fill="none"
     stroke-width="10"
     stroke-linecap="butt"
     stroke-linejoin="miter"
     stroke="rgb(100%, 0%, 0%)"
     stroke-opacity="1"
     stroke-miterlimit="10"
     d="M -1108.867188 31466.796875 C -512.929688 29893.28125 1087.1875 28967.382812 2865.898438 27572.1875 C 4357.109375 26402.5 6958.476562 26328.90625 8649.609375 24612.5 C 9464.492188 23789.414062 10627.695312 23145.507812 11627.695312 22203.59375 C 14269.414062 19715 15910.3125 19741.992188 16956.09375 18735.898438 C 17628.90625 18088.710938 18508.59375 17330.507812 19711.796875 15928.984375 C 21265.703125 14119.101562 23388.710938 13633.59375 24941.601562 12225.78125 C 25625 11606.40625 26343.984375 11100.585938 27075.117188 11173.710938 C 29881.71875 11454.414062 32532.5 11273.007812 34761.992188 10876.015625 C 39260.585938 10075 40960.585938 3754.414062 44967.5 5177.890625 C 47308.710938 6009.6875 49204.101562 7105.898438 51345.390625 8666.914062 C 53972.382812 10581.914062 56178.710938 7385.507812 59378.789062 5825 C 62105.117188 4495.507812 65109.6875 2748.007812 67694.414062 829.6875 C 68835.195312 -16.992188 69932.304688 -819.414062 71194.101562 -968.515625 "
     transform="matrix(0.1, 0, 0, -0.1, 0, 3000)"
     id="path142" />
  <path
     fill="none"
     stroke-width="10"
     stroke-linecap="butt"
     stroke-linejoin="miter"
     stroke="rgb(100%, 0%, 0%)"
     stroke-opacity="1"
     stroke-miterlimit="10"
     d="M -1082.34375 31435.898438 C -463.476562 29830.390625 1074.84375 28817.5 2763.554688 27374.414062 C 4219.21875 26130.3125 6939.570312 26229.6875 8633.007812 24553.90625 C 9451.601562 23748.007812 10672.109375 23184.21875 11743.085938 22315.703125 C 14444.101562 20125.195312 16262.109375 20135.898438 17203.984375 19033.203125 C 17832.304688 18297.617188 18652.109375 17459.804688 19758.085938 16042.304688 C 21249.296875 14131.09375 23248.28125 13427.8125 24760.703125 12026.484375 C 25451.796875 11386.210938 26174.804688 10965 26907.617188 11006.210938 C 29820.78125 11170.117188 32433.59375 11357.1875 34619.6875 10956.992188 C 39221.796875 10114.492188 40649.21875 3450.703125 44700 5149.21875 C 47114.609375 6161.601562 49014.6875 7284.101562 51116.914062 8667.890625 C 53844.414062 10463.203125 55964.6875 7050.703125 59205.898438 5683.007812 C 62009.101562 4500.117188 65097.8125 2918.398438 67692.382812 944.492188 C 68822.5 84.6875 69898.789062 -769.609375 71167.617188 -937.5 "
     transform="matrix(0.1, 0, 0, -0.1, 0, 3000)"
     id="path143" />
  <path
     fill="none"
     stroke-width="10"
     stroke-linecap="butt"
     stroke-linejoin="miter"
     stroke="rgb(100%, 0%, 0%)"
     stroke-opacity="1"
     stroke-miterlimit="10"
     d="M -1055.859375 31404.882812 C -414.023438 29767.5 1060.9375 28665.507812 2661.210938 27176.484375 C 4080.078125 25856.289062 6920.664062 26130.507812 8616.367188 24495.3125 C 9438.75 23706.484375 10712.617188 23220.117188 11858.515625 22427.695312 C 14607.890625 20526.71875 16610.117188 20526.71875 17451.796875 19330.585938 C 18033.085938 18504.414062 18792.890625 17586.40625 19804.296875 16155.703125 C 21229.492188 14139.6875 23107.382812 13221.289062 24579.804688 11827.109375 C 25278.28125 11165.78125 26009.21875 10750.390625 26740.117188 10838.710938 C 29745.585938 11201.601562 32334.6875 11441.09375 34477.5 11038.007812 C 39182.8125 10153.085938 40335.390625 3150.703125 44432.617188 5120.507812 C 46918.984375 6315.898438 48831.015625 7456.40625 50888.28125 8668.789062 C 53722.617188 10339.101562 55752.1875 6718.515625 59033.007812 5541.015625 C 61914.414062 4506.796875 65086.289062 3089.21875 67690.507812 1059.21875 C 68810 186.601562 69865.195312 -719.6875 71141.09375 -906.601562 "
     transform="matrix(0.1, 0, 0, -0.1, 0, 3000)"
     id="path144" />
  <path
     fill="none"
     stroke-width="10"
     stroke-linecap="butt"
     stroke-linejoin="miter"
     stroke="rgb(100%, 0%, 0%)"
     stroke-opacity="1"
     stroke-miterlimit="10"
     d="M -1029.375 31373.984375 C -364.53125 29704.609375 1045.234375 28511.484375 2558.867188 26978.710938 C 3939.375 25580.585938 6901.757812 26031.289062 8599.765625 24436.71875 C 9425.859375 23665.117188 10749.6875 23251.914062 11973.984375 22539.804688 C 14763.085938 20917.695312 16953.984375 20916.015625 17699.609375 19627.890625 C 18230.898438 18710 18930.585938 17710.78125 19850.585938 16268.984375 C 21205.585938 14145.3125 22965.898438 13014.296875 24398.984375 11627.695312 C 25104.492188 10945 25843.085938 10537.304688 26572.617188 10671.210938 C 29668.710938 11239.414062 32235.585938 11524.414062 34335.195312 11119.101562 C 39143.59375 10190.703125 40019.21875 2853.515625 44165.195312 5091.796875 C 46721.914062 6472.109375 48652.109375 7622.304688 50659.804688 8669.804688 C 53606.796875 10207.617188 55540.585938 6389.101562 58860.117188 5398.984375 C 61820.507812 4516.015625 65075 3260.390625 67688.59375 1173.984375 C 68797.617188 288.710938 69831.601562 -669.804688 71114.609375 -875.703125 "
     transform="matrix(0.1, 0, 0, -0.1, 0, 3000)"
     id="path145" />
  <path
     fill="none"
     stroke-width="10"
     stroke-linecap="butt"
     stroke-linejoin="miter"
     stroke="rgb(100%, 0%, 0%)"
     stroke-opacity="1"
     stroke-miterlimit="10"
     d="M -1002.851562 31343.085938 C -315.078125 29641.71875 1027.617188 28355.898438 2456.523438 26780.78125 C 3796.796875 25303.398438 6882.851562 25932.109375 8583.125 24378.085938 C 9412.96875 23623.710938 10784.101562 23278.28125 12089.414062 22651.914062 C 14912.5 21297.109375 17294.101562 21304.882812 17947.382812 19925.195312 C 18425.703125 18915.117188 19065.3125 17833.59375 19896.796875 16382.304688 C 21176.71875 14148.28125 22823.90625 12806.796875 24218.085938 11428.28125 C 24930.507812 10723.984375 25676.484375 10325.3125 26405.117188 10503.59375 C 29589.296875 11282.890625 32136.484375 11607.382812 34192.890625 11200.117188 C 39104.21875 10227.382812 39700.507812 2558.398438 43897.8125 5063.085938 C 46523.203125 6629.804688 48477.1875 7781.210938 50431.289062 8670.78125 C 53496.484375 10066.289062 55329.609375 6062.5 58687.1875 5256.992188 C 61727.109375 4527.8125 65064.101562 3432.109375 67686.71875 1288.789062 C 68785.3125 390.898438 69798.007812 -619.882812 71088.085938 -844.804688 "
     transform="matrix(0.1, 0, 0, -0.1, 0, 3000)"
     id="path146" />
  <path
     fill="none"
     stroke-width="10"
     stroke-linecap="butt"
     stroke-linejoin="miter"
     stroke="rgb(100%, 0%, 0%)"
     stroke-opacity="1"
     stroke-miterlimit="10"
     d="M -976.367188 31312.1875 C -265.585938 29578.710938 1007.96875 28198.984375 2354.140625 26582.890625 C 3652.1875 25024.6875 6863.945312 25832.890625 8566.523438 24319.609375 C 9400.078125 23582.304688 10816.992188 23298.515625 12204.804688 22763.984375 C 15059.609375 21664.492188 17630.898438 21694.492188 18195.195312 20222.617188 C 18617.8125 19120.390625 19196.914062 17955.3125 19943.085938 16495.585938 C 21142.5 14149.21875 22681.289062 12598.710938 24037.1875 11228.984375 C 24756.09375 10502.695312 25509.101562 10114.296875 26237.617188 10336.09375 C 29506.601562 11331.601562 32037.304688 11690 34050.703125 11281.09375 C 39064.609375 10262.890625 39379.414062 2264.804688 43630.3125 5034.414062 C 46322.8125 6788.59375 48304.6875 7933.085938 50202.695312 8671.796875 C 53390.703125 9912.695312 55118.59375 5738.59375 58514.296875 5115 C 61633.789062 4542.1875 65053.515625 3603.984375 67684.804688 1403.515625 C 68773.203125 493.320312 69764.492188 -570 71061.601562 -813.90625 "
     transform="matrix(0.1, 0, 0, -0.1, 0, 3000)"
     id="path147" />
  <path
     fill="none"
     stroke-width="10"
     stroke-linecap="butt"
     stroke-linejoin="miter"
     stroke="rgb(100%, 0%, 0%)"
     stroke-opacity="1"
     stroke-miterlimit="10"
     d="M -949.84375 31281.289062 C -216.132812 29515.78125 986.171875 28041.210938 2251.835938 26385.117188 C 3505.234375 24744.882812 6845.039062 25733.710938 8549.882812 24261.015625 C 9387.1875 23540.898438 10849.609375 23311.914062 12320.195312 22876.09375 C 15207.617188 22020.507812 17965 22085.390625 18443.007812 20519.882812 C 18807.5 19326.289062 19325.390625 18076.601562 19989.296875 16608.90625 C 21102.1875 14148.59375 22538.203125 12390.3125 23856.289062 11029.609375 C 24581.40625 10281.09375 25340.898438 9903.984375 26070.117188 10168.59375 C 29420.195312 11384.492188 31938.007812 11772.304688 33908.398438 11362.1875 C 39024.6875 10297.304688 39056.09375 1972.1875 43362.890625 5005.703125 C 46121.015625 6948.398438 48133.28125 8077.695312 49974.21875 8672.8125 C 53288.007812 9744.101562 54907.1875 5417.382812 58341.289062 4973.085938 C 61540.195312 4559.21875 65043.28125 3776.40625 67682.890625 1518.28125 C 68761.210938 595.820312 69730.898438 -520.195312 71035.117188 -782.890625 "
     transform="matrix(0.1, 0, 0, -0.1, 0, 3000)"
     id="path148" />
  <path
     fill="none"
     stroke-width="10"
     stroke-linecap="butt"
     stroke-linejoin="miter"
     stroke="rgb(100%, 0%, 0%)"
     stroke-opacity="1"
     stroke-miterlimit="10"
     d="M -923.359375 31250.3125 C -166.640625 29452.890625 962.304688 27882.8125 2149.453125 26187.1875 C 3355.898438 24464.21875 6826.132812 25634.492188 8533.28125 24202.382812 C 9374.296875 23499.414062 10883.203125 23318.515625 12435.703125 22988.203125 C 15359.804688 22366.09375 18297.109375 22478.007812 18690.898438 20817.304688 C 18995.3125 19533.203125 19451.015625 18198.007812 20035.585938 16722.1875 C 21055.507812 14147.1875 22394.609375 12181.40625 23675.507812 10830.195312 C 24406.289062 10059.21875 25171.914062 9694.101562 25902.617188 10001.09375 C 29329.804688 11440.898438 31838.59375 11854.21875 33766.210938 11443.203125 C 38984.492188 10330.507812 38730.703125 1680.195312 43095.507812 4976.992188 C 45917.8125 7108.789062 47961.210938 8215.195312 49745.703125 8673.789062 C 53186.484375 9558.085938 54694.882812 5098.515625 58168.398438 4831.09375 C 61445.78125 4578.710938 65033.398438 3949.101562 67680.898438 1633.085938 C 68749.296875 698.515625 69697.304688 -470.3125 71008.59375 -751.992188 "
     transform="matrix(0.1, 0, 0, -0.1, 0, 3000)"
     id="path149" />
  <path
     fill="none"
     stroke-width="10"
     stroke-linecap="butt"
     stroke-linejoin="miter"
     stroke="rgb(100%, 0%, 0%)"
     stroke-opacity="1"
     stroke-miterlimit="10"
     d="M -896.875 31219.414062 C -117.1875 29390 936.289062 27724.21875 2047.109375 25989.414062 C 3203.945312 24182.695312 6807.265625 25535.3125 8516.640625 24143.789062 C 9361.40625 23458.007812 10919.101562 23318.789062 12551.09375 23100.3125 C 15518.59375 22703.085938 18627.617188 22872.304688 18938.710938 21114.609375 C 19181.796875 19741.09375 19573.90625 18320.117188 20081.796875 16835.507812 C 21002.1875 14145.585938 22250.507812 11972.1875 23494.609375 10630.78125 C 24230.78125 9836.992188 25001.992188 9484.609375 25735.117188 9833.59375 C 29235.507812 11499.882812 31739.21875 11935.78125 33623.90625 11524.21875 C 38943.984375 10362.5 38403.398438 1388.515625 42828.085938 4948.28125 C 45713.28125 7269.609375 47786.71875 8346.09375 49517.109375 8674.804688 C 53083.90625 9352.304688 54481.484375 4781.796875 57995.507812 4689.101562 C 61350.507812 4600.507812 65028.59375 4127.304688 67678.984375 1747.890625 C 68739.492188 803.320312 69663.789062 -420.390625 70982.109375 -721.09375 "
     transform="matrix(0.1, 0, 0, -0.1, 0, 3000)"
     id="path150" />
  <path
     fill="none"
     stroke-width="10"
     stroke-linecap="butt"
     stroke-linejoin="miter"
     stroke="rgb(100%, 0%, 0%)"
     stroke-opacity="1"
     stroke-miterlimit="10"
     d="M -870.351562 31188.515625 C -67.695312 29327.109375 908.242188 27565.703125 1944.765625 25791.484375 C 3049.414062 23900.898438 6788.359375 25436.09375 8500.039062 24085.195312 C 9348.515625 23416.601562 10958.28125 23313.59375 12666.484375 23212.382812 C 15685.703125 23033.515625 18956.992188 23268.398438 19186.484375 21411.914062 C 19367.1875 19950.117188 19694.101562 18443.203125 20128.085938 16948.789062 C 20942.382812 14144.609375 22105.898438 11762.695312 23313.710938 10431.40625 C 24055 9614.414062 24831.289062 9275.195312 25567.617188 9666.015625 C 29137.304688 11560.898438 31638.984375 12014.296875 33481.71875 11605.3125 C 38901.210938 10384.609375 38074.492188 1096.992188 42560.585938 4919.609375 C 45507.695312 7430.78125 47607.890625 8471.015625 49288.59375 8675.78125 C 52976.992188 9125.3125 54266.601562 4466.992188 57822.617188 4547.109375 C 61253.90625 4624.414062 65017.382812 4298.203125 67677.109375 1862.617188 C 68726.992188 905.195312 69630.195312 -370.507812 70955.585938 -690.195312 "
     transform="matrix(0.1, 0, 0, -0.1, 0, 3000)"
     id="path151" />
  <path
     fill="none"
     stroke-width="10"
     stroke-linecap="butt"
     stroke-linejoin="miter"
     stroke="rgb(100%, 0%, 0%)"
     stroke-opacity="1"
     stroke-miterlimit="10"
     d="M -843.867188 31157.617188 C -18.242188 29264.21875 878.203125 27407.5 1842.421875 25593.710938 C 2892.304688 23618.789062 6769.453125 25336.914062 8483.4375 24026.601562 C 10810 22248.085938 19199.882812 24797.304688 19434.296875 21709.296875 C 19924.6875 15249.21875 22895.898438 8034.882812 25400.117188 9498.515625 C 40191.992188 18144.101562 36261.71875 -525.703125 42293.203125 4890.898438 C 52286.992188 13865.898438 52500.195312 4045.390625 57649.6875 4405.117188 C 61155.78125 4650.117188 65006.09375 4469.101562 67675.195312 1977.382812 C 68714.609375 1007.109375 69596.601562 -320.703125 70929.101562 -659.296875 "
     transform="matrix(0.1, 0, 0, -0.1, 0, 3000)"
     id="path152" />
  <path
     fill="none"
     stroke-width="10"
     stroke-linecap="butt"
     stroke-linejoin="miter"
     stroke="rgb(100%, 0%, 0%)"
     stroke-opacity="1"
     stroke-miterlimit="10"
     d="M -1007.421875 31077.617188 C -151.914062 29218.710938 859.960938 27447.890625 1940.78125 25722.5 C 3111.835938 23853.085938 6930.507812 25440.390625 8689.21875 24185.898438 C 9151.171875 23856.289062 9811.992188 23681.289062 10569.492188 23560.3125 C 14038.515625 23006.09375 19128.007812 23857.304688 19362.382812 21323.28125 C 19439.804688 20471.40625 19585.195312 19614.882812 19774.882812 18768.28125 C 20992.695312 13334.101562 23620.898438 8283.515625 25890.390625 9353.710938 C 31140.507812 11829.296875 33893.398438 12182.304688 35714.804688 10694.882812 C 38915.585938 8081.210938 38899.882812 1985.117188 42705.195312 5227.8125 C 52039.882812 13182.1875 52866.71875 5035.507812 57367.617188 4550.507812 C 57561.914062 4529.414062 57762.8125 4523.90625 57971.40625 4532.109375 C 61487.617188 4671.09375 65170.898438 4338.203125 67831.289062 1984.804688 C 68861.71875 1068.90625 69755.3125 -166.289062 71092.617188 -451.601562 "
     transform="matrix(0.1, 0, 0, -0.1, 0, 3000)"
     id="path153" />
  <path
     fill="none"
     stroke-width="10"
     stroke-linecap="butt"
     stroke-linejoin="miter"
     stroke="rgb(100%, 0%, 0%)"
     stroke-opacity="1"
     stroke-miterlimit="10"
     d="M -1170.976562 30997.695312 C -285.585938 29173.203125 840.664062 27488.710938 2039.140625 25851.40625 C 3330.117188 24087.695312 7093.515625 25545.390625 8895 24345.117188 C 9382.070312 24020.585938 10051.914062 23849.492188 10795.507812 23704.21875 C 14403.59375 22999.492188 19011.992188 23497.695312 19290.507812 20937.304688 C 19380.703125 20083.515625 19562.695312 19234.882812 19799.804688 18395.195312 C 21274.609375 13171.71875 23978.984375 8326.289062 26380.78125 9208.789062 C 31510.507812 11093.710938 34181.484375 12178.203125 36013.59375 10760.195312 C 39175 8313.515625 39371.992188 2552.1875 43117.304688 5564.609375 C 52200.117188 12870.3125 53267.617188 5246.484375 57699.492188 4690.3125 C 57891.09375 4666.015625 58088.710938 4661.914062 58293.203125 4659.101562 C 61820.585938 4610.898438 65340.78125 4213.398438 67987.382812 1992.1875 C 69010.78125 1133.203125 69913.984375 -11.914062 71256.210938 -243.984375 "
     transform="matrix(0.1, 0, 0, -0.1, 0, 3000)"
     id="path154" />
  <path
     fill="none"
     stroke-width="10"
     stroke-linecap="butt"
     stroke-linejoin="miter"
     stroke="rgb(100%, 0%, 0%)"
     stroke-opacity="1"
     stroke-miterlimit="10"
     d="M -1334.53125 30917.695312 C -419.21875 29127.695312 820.195312 27529.492188 2137.5 25980.195312 C 3547.148438 24322.304688 7258.125 25651.914062 9100.78125 24504.296875 C 9613.359375 24185.117188 10291.796875 24015.78125 11021.484375 23848.203125 C 14770.195312 22987.382812 18901.71875 23138.90625 19218.710938 20551.40625 C 19323.515625 19695.78125 19538.710938 18855.703125 19824.6875 18022.109375 C 21543.28125 13012.109375 24215.507812 8850.195312 26871.09375 9063.984375 C 31484.609375 11306.484375 34468.515625 12173.710938 36312.382812 10825.507812 C 39432.1875 8544.492188 39841.601562 3118.984375 43529.296875 5901.484375 C 52353.789062 12559.882812 53668.515625 5457.5 58031.289062 4830.195312 C 58220.390625 4802.695312 58414.6875 4790.585938 58615 4786.210938 C 62155.195312 4707.109375 65507.5 4085.390625 68143.515625 1999.609375 C 69158.710938 1196.210938 70072.695312 142.382812 71419.804688 -36.40625 "
     transform="matrix(0.1, 0, 0, -0.1, 0, 3000)"
     id="path155" />
  <path
     fill="none"
     stroke-width="10"
     stroke-linecap="butt"
     stroke-linejoin="miter"
     stroke="rgb(100%, 0%, 0%)"
     stroke-opacity="1"
     stroke-miterlimit="10"
     d="M -1498.085938 30837.8125 C -552.890625 29082.304688 798.59375 27570.117188 2235.859375 26109.101562 C 3762.890625 24556.71875 7424.179688 25760 9306.523438 24663.59375 C 9844.960938 24349.882812 10531.71875 24180.390625 11247.382812 23992.1875 C 15137.382812 22969.414062 18786.992188 22779.609375 19146.796875 20165.390625 C 19264.804688 19308.085938 19513.007812 18476.992188 19849.492188 17648.90625 C 21798.59375 12853.398438 24545.507812 9057.695312 27361.484375 8919.21875 C 31743.710938 10875.195312 34754.414062 12168.710938 36611.210938 10890.78125 C 39687.1875 8773.90625 40308.515625 3686.015625 43941.289062 6238.398438 C 52500.507812 12251.914062 54069.296875 5668.515625 58363.085938 4970.117188 C 58549.609375 4939.296875 58740.703125 4923.710938 58936.796875 4913.203125 C 62490.507812 4721.71875 65673.789062 3957.1875 68299.609375 2006.914062 C 69306.484375 1259.101562 70231.40625 296.796875 71583.28125 171.289062 "
     transform="matrix(0.1, 0, 0, -0.1, 0, 3000)"
     id="path156" />
  <path
     fill="none"
     stroke-width="10"
     stroke-linecap="butt"
     stroke-linejoin="miter"
     stroke="rgb(100%, 0%, 0%)"
     stroke-opacity="1"
     stroke-miterlimit="10"
     d="M -1661.640625 30757.8125 C -686.5625 29036.796875 775.9375 27610.390625 2334.179688 26237.890625 C 3977.5 24790.585938 7591.367188 25869.492188 9512.304688 24822.8125 C 10076.914062 24515.195312 10771.40625 24343.59375 11473.398438 24136.210938 C 15504.296875 22945.585938 18671.992188 22420.195312 19074.882812 19779.414062 C 19206.015625 18920.3125 19485.507812 18098.515625 19874.414062 17275.78125 C 22040.585938 12693.984375 24875.507812 9265.3125 27851.796875 8774.296875 C 32002.890625 10443.90625 35038.984375 12163.007812 36910 10956.09375 C 39940 9001.484375 40772.1875 4253.28125 44353.398438 6575.195312 C 52639.21875 11947.382812 54470.195312 5879.414062 58694.882812 5109.882812 C 58878.789062 5075.898438 59066.71875 5056.601562 59258.515625 5040.195312 C 62826.601562 4733.59375 65839.6875 3828.789062 68455.703125 2014.296875 C 69453.984375 1321.914062 70390.117188 451.210938 71746.914062 378.90625 "
     transform="matrix(0.1, 0, 0, -0.1, 0, 3000)"
     id="path157" />
  <path
     fill="none"
     stroke-width="10"
     stroke-linecap="butt"
     stroke-linejoin="miter"
     stroke="rgb(100%, 0%, 0%)"
     stroke-opacity="1"
     stroke-miterlimit="10"
     d="M -1825.195312 30677.890625 C -820.234375 28991.289062 752.304688 27649.882812 2432.539062 26366.796875 C 4191.09375 25023.789062 7759.53125 25980.507812 9718.125 24981.992188 C 10309.101562 24680.703125 11010.78125 24505.390625 11699.296875 24280.195312 C 15870.3125 22915.703125 18556.601562 22060.898438 19003.007812 19393.515625 C 19147.109375 18532.5 19456.09375 17719.804688 19899.296875 16902.695312 C 22270.195312 12532.109375 25205.507812 9472.890625 28342.109375 8629.492188 C 32261.992188 10012.617188 35322.5 12156.40625 37208.789062 11021.40625 C 40190.585938 9227.1875 41232.382812 4821.71875 44765.390625 6912.109375 C 52769.21875 11647.8125 54871.09375 6090.390625 59026.796875 5249.804688 C 59208.007812 5212.617188 59392.8125 5189.414062 59580.3125 5167.1875 C 63163.085938 4742.695312 66005.117188 3700 68611.796875 2021.71875 C 69601.40625 1384.492188 70548.789062 605.507812 71910.390625 586.484375 "
     transform="matrix(0.1, 0, 0, -0.1, 0, 3000)"
     id="path158" />
  <path
     fill="none"
     stroke-width="10"
     stroke-linecap="butt"
     stroke-linejoin="miter"
     stroke="rgb(100%, 0%, 0%)"
     stroke-opacity="1"
     stroke-miterlimit="10"
     d="M -1988.75 30597.890625 C -953.90625 28945.78125 727.96875 27688.710938 2530.898438 26495.585938 C 4403.90625 25256.09375 7928.476562 26092.8125 9923.90625 25141.210938 C 10541.484375 24846.71875 11249.882812 24666.210938 11925.3125 24424.21875 C 16234.804688 22879.804688 18441.015625 21701.484375 18931.09375 19007.5 C 19088.085938 18144.6875 19424.804688 17340.390625 19924.21875 16529.609375 C 22488.398438 12366.289062 25535.507812 9680.390625 28832.5 8484.6875 C 32521.09375 9581.40625 35604.882812 12148.710938 37507.5 11086.71875 C 40439.21875 9450.507812 41688.789062 5391.71875 45177.382812 7248.984375 C 52889.6875 11354.6875 55271.914062 6301.40625 59358.59375 5389.609375 C 59537.1875 5349.21875 59718.789062 5321.992188 59902.109375 5294.21875 C 63499.6875 4748.90625 66170 3570.898438 68767.890625 2029.101562 C 69748.59375 1446.992188 70707.5 759.882812 72073.984375 794.179688 "
     transform="matrix(0.1, 0, 0, -0.1, 0, 3000)"
     id="path159" />
  <path
     fill="none"
     stroke-width="10"
     stroke-linecap="butt"
     stroke-linejoin="miter"
     stroke="rgb(100%, 0%, 0%)"
     stroke-opacity="1"
     stroke-miterlimit="10"
     d="M -2152.304688 30518.007812 C -1087.578125 28900.390625 703.046875 27726.71875 2629.257812 26624.492188 C 4616.171875 25487.617188 8098.046875 26206.484375 10129.6875 25300.507812 C 10774.101562 25013.085938 11488.710938 24826.015625 12151.210938 24568.203125 C 16596.992188 22837.8125 18325.117188 21342.109375 18859.21875 18621.484375 C 19028.984375 17756.796875 19391.601562 16960.195312 19949.101562 16156.484375 C 22696.601562 12195.117188 25865.507812 9888.007812 29322.8125 8339.804688 C 32780.3125 9150.117188 35886.015625 12139.492188 37806.289062 11152.109375 C 40685.78125 9671.40625 42141.015625 5964.492188 45589.492188 7585.78125 C 53000.507812 11070.390625 55672.8125 6512.382812 59690.390625 5529.492188 C 59866.40625 5485.78125 60044.882812 5454.296875 60223.90625 5421.210938 C 63836.210938 4751.796875 66334.609375 3441.210938 68923.984375 2036.484375 C 69895.703125 1509.414062 70866.210938 914.296875 72237.5 1001.796875 "
     transform="matrix(0.1, 0, 0, -0.1, 0, 3000)"
     id="path160" />
  <path
     fill="none"
     stroke-width="10"
     stroke-linecap="butt"
     stroke-linejoin="miter"
     stroke="rgb(100%, 0%, 0%)"
     stroke-opacity="1"
     stroke-miterlimit="10"
     d="M -2315.859375 30438.007812 C -1221.25 28854.882812 677.8125 27763.59375 2727.617188 26753.28125 C 4828.046875 25718.085938 8268.046875 26321.289062 10335.390625 25459.6875 C 11006.796875 25179.882812 11727.1875 24985 12377.1875 24712.1875 C 16956.601562 22789.804688 18208.90625 20982.617188 18787.304688 18235.585938 C 18969.804688 17368.984375 19356.71875 16578.59375 19973.90625 15783.28125 C 22896.71875 12017.695312 26195.507812 10095.507812 29813.203125 8195 C 33039.414062 8718.789062 36166.09375 12128.59375 38105.117188 11217.382812 C 40930.585938 9889.492188 42589.101562 6541.210938 46001.484375 7922.695312 C 53101.40625 10797.109375 56073.59375 6723.28125 60022.1875 5669.414062 C 60195.703125 5622.5 60370.898438 5586.601562 60545.585938 5548.203125 C 64171.992188 4751.484375 66498.59375 3311.015625 69080.117188 2043.90625 C 70042.5 1571.484375 71024.882812 1068.59375 72401.09375 1209.492188 "
     transform="matrix(0.1, 0, 0, -0.1, 0, 3000)"
     id="path161" />
  <path
     fill="none"
     stroke-width="10"
     stroke-linecap="butt"
     stroke-linejoin="miter"
     stroke="rgb(100%, 0%, 0%)"
     stroke-opacity="1"
     stroke-miterlimit="10"
     d="M -2479.414062 30358.085938 C -1354.921875 28809.414062 652.382812 27799.6875 2825.976562 26882.1875 C 5039.765625 25947.617188 8438.398438 26437.304688 10541.210938 25618.90625 C 11239.6875 25347.109375 11965.195312 25143.398438 12603.085938 24856.210938 C 17312.890625 22735.78125 18092.382812 20623.007812 18715.507812 17849.609375 C 18910.585938 16981.09375 19320.3125 16195.390625 19998.789062 15410.195312 C 23090.195312 11833.28125 26525.507812 10303.085938 30303.515625 8050.195312 C 33298.515625 8287.5 36445.117188 12115.78125 38403.90625 11282.695312 C 41173.984375 10104.492188 43033.007812 7123.710938 46413.515625 8259.609375 C 53193.28125 10537.617188 56474.492188 6934.296875 60354.101562 5809.21875 C 60524.882812 5759.101562 60696.914062 5718.59375 60867.382812 5675.195312 C 64506.992188 4747.8125 66662.304688 3180.117188 69236.210938 2051.210938 C 70189.21875 1633.28125 71183.59375 1223.007812 72564.6875 1417.109375 "
     transform="matrix(0.1, 0, 0, -0.1, 0, 3000)"
     id="path162" />
  <path
     fill="none"
     stroke-width="10"
     stroke-linecap="butt"
     stroke-linejoin="miter"
     stroke="rgb(100%, 0%, 0%)"
     stroke-opacity="1"
     stroke-miterlimit="10"
     d="M -2642.96875 30278.085938 C -1488.59375 28763.90625 626.953125 27835 2924.335938 27011.015625 C 5251.523438 26176.40625 8608.945312 26554.414062 10746.992188 25778.203125 C 11472.617188 25514.6875 12202.8125 25301.09375 12829.101562 25000.195312 C 17665.585938 22675.898438 17975.703125 20263.398438 18643.59375 17463.710938 C 18851.210938 16593.203125 19282.382812 15810.3125 20023.710938 15037.109375 C 23278.984375 11641.40625 26855.507812 10510.703125 30793.789062 7905.3125 C 33557.695312 7856.210938 36723.28125 12100.507812 38702.695312 11348.007812 C 41416.09375 10316.40625 43473.515625 7714.101562 46825.507812 8596.484375 C 53277.890625 10294.882812 56875.390625 7145.3125 60685.898438 5949.101562 C 60854.101562 5895.703125 61022.8125 5850.585938 61189.21875 5802.1875 C 64840.585938 4740.585938 66825.703125 3048.28125 69392.304688 2058.59375 C 70335.78125 1694.804688 71342.304688 1377.382812 72728.203125 1624.6875 "
     transform="matrix(0.1, 0, 0, -0.1, 0, 3000)"
     id="path163" />
  <path
     fill="none"
     stroke-width="10"
     stroke-linecap="butt"
     stroke-linejoin="miter"
     stroke="rgb(100%, 0%, 0%)"
     stroke-opacity="1"
     stroke-miterlimit="10"
     d="M -2806.523438 30198.203125 C -1622.265625 28718.398438 601.601562 27869.414062 3022.65625 27139.882812 C 5463.398438 26404.414062 8779.609375 26672.5 10952.8125 25937.382812 C 11705.703125 25682.695312 12440 25458.398438 13055.117188 25144.101562 C 18014.414062 22610.3125 17858.59375 19903.710938 18571.71875 17077.695312 C 18791.796875 16205.3125 19243.515625 15423.203125 20048.59375 14663.984375 C 23464.882812 11441.914062 27185.507812 10718.203125 31284.21875 7760.507812 C 33816.796875 7424.882812 37000.78125 12082.5 39001.484375 11413.28125 C 41657.5 10524.804688 43911.71875 8314.804688 47237.617188 8933.28125 C 53358.28125 10071.601562 57276.210938 7356.210938 61017.695312 6088.984375 C 61183.28125 6032.382812 61348.710938 5982.382812 61510.898438 5929.21875 C 65172.617188 4730 66988.789062 2915.703125 69548.398438 2066.015625 C 70482.382812 1756.015625 71501.015625 1531.71875 72891.796875 1832.382812 "
     transform="matrix(0.1, 0, 0, -0.1, 0, 3000)"
     id="path164" />
  <path
     fill="none"
     stroke-width="10"
     stroke-linecap="butt"
     stroke-linejoin="miter"
     stroke="rgb(100%, 0%, 0%)"
     stroke-opacity="1"
     stroke-miterlimit="10"
     d="M -2970.117188 30118.203125 C -1755.9375 28673.007812 576.484375 27903.203125 3121.015625 27268.710938 C 5675.507812 26631.796875 8950.3125 26791.484375 11158.59375 26096.601562 C 11938.789062 25851.09375 12676.796875 25615.3125 13281.015625 25288.085938 C 18358.710938 22538.984375 17736.09375 19542.382812 18499.804688 16691.71875 C 18730.703125 15816.914062 19203.789062 15034.101562 20073.398438 14290.78125 C 23649.296875 11235 27515.585938 10925.78125 31774.492188 7615.703125 C 34075.898438 6993.59375 37277.890625 12061.40625 39300.3125 11478.59375 C 41898.59375 10729.804688 44349.6875 8928.515625 47649.609375 9270.195312 C 53439.101562 9869.6875 57677.109375 7567.1875 61349.492188 6228.789062 C 61512.5 6168.984375 61674.414062 6113.984375 61832.695312 6056.210938 C 65502.5 4715.78125 67151.796875 2781.992188 69704.492188 2073.398438 C 70628.90625 1816.796875 71659.6875 1686.09375 73055.3125 2040 "
     transform="matrix(0.1, 0, 0, -0.1, 0, 3000)"
     id="path165" />
  <path
     fill="none"
     stroke-width="10"
     stroke-linecap="butt"
     stroke-linejoin="miter"
     stroke="rgb(100%, 0%, 0%)"
     stroke-opacity="1"
     stroke-miterlimit="10"
     d="M -3133.671875 30038.28125 C -1889.570312 28627.5 551.640625 27936.40625 3219.375 27397.617188 C 5887.890625 26858.59375 9120.976562 26911.289062 11364.296875 26255.78125 C 12171.914062 26019.882812 12913.085938 25771.796875 13506.992188 25432.109375 C 18698.515625 22462.304688 17620.117188 19182.890625 18427.890625 16305.78125 C 18671.601562 15429.101562 19163.398438 14642.8125 20098.28125 13917.695312 C 23833.789062 11020.78125 27380 10484.492188 32264.804688 7470.78125 C 34188.90625 6283.789062 37554.882812 12036.914062 39599.101562 11543.90625 C 42139.882812 10931.09375 44804.609375 9304.804688 48061.601562 9607.109375 C 53503.984375 10112.109375 58077.890625 7778.203125 61681.40625 6368.710938 C 61841.796875 6305.585938 62000.117188 6245.585938 62154.492188 6183.203125 C 65830 4698.28125 67314.882812 2647.1875 69860.585938 2080.78125 C 70775.390625 1877.304688 71818.398438 1840.390625 73218.90625 2247.617188 "
     transform="matrix(0.1, 0, 0, -0.1, 0, 3000)"
     id="path166" />
  <path
     fill="none"
     stroke-width="10"
     stroke-linecap="butt"
     stroke-linejoin="miter"
     stroke="rgb(100%, 0%, 0%)"
     stroke-opacity="1"
     stroke-miterlimit="10"
     d="M -3297.226562 29958.398438 C -2023.242188 28581.992188 526.367188 27964.414062 3317.734375 27526.40625 C 6099.84375 27080.117188 9291.5625 27031.914062 11570.117188 26415.117188 C 12405 26188.984375 13148.984375 25928.203125 13732.890625 25576.09375 C 19033.28125 22380.390625 17504.101562 18823.28125 18356.015625 15919.804688 C 18612.5 15041.210938 19122.695312 14249.414062 20123.203125 13544.609375 C 24019.296875 10799.804688 27899.414062 11002.109375 32755.195312 7326.015625 C 34503.789062 6002.1875 37832.109375 12008.710938 39897.8125 11609.21875 C 42382.109375 11128.789062 45239.6875 10203.203125 48473.710938 9943.90625 C 53629.101562 9530.585938 58478.789062 7989.21875 62013.203125 6508.515625 C 62171.015625 6442.304688 62325.703125 6377.109375 62476.289062 6310.195312 C 66154.804688 4677.617188 67478.085938 2511.210938 70016.71875 2088.203125 C 70921.992188 1937.304688 71977.109375 1994.804688 73382.382812 2455.3125 "
     transform="matrix(0.1, 0, 0, -0.1, 0, 3000)"
     id="path167" />
  <path
     fill="none"
     stroke-width="10"
     stroke-linecap="butt"
     stroke-linejoin="miter"
     stroke="rgb(100%, 0%, 0%)"
     stroke-opacity="1"
     stroke-miterlimit="10"
     d="M -3460.78125 29878.398438 C -376.796875 26704.492188 10293.085938 28044.492188 13958.90625 25720.117188 C 20987.109375 21263.59375 15534.609375 16125.390625 20148.085938 13171.484375 C 24207.109375 10572.5 28505.585938 11548.515625 33245.507812 7181.09375 C 34853.28125 5699.6875 38110.117188 11976.40625 40196.601562 11674.492188 C 46339.296875 10785.703125 56612.890625 9215.195312 62345 6648.398438 C 67761.09375 4223.203125 67992.8125 640 73546.015625 2662.890625 "
     transform="matrix(0.1, 0, 0, -0.1, 0, 3000)"
     id="path168" />
</svg>
